<svg xmlns="http://www.w3.org/2000/svg" width="24" height="24">
  <path stroke-width="1" stroke="maroon" fill="orange" d="m 12,6 l -11,5 v 6 l 11,-5 11,5 v -6 z" />
  <circle stroke-width="1" stroke="navy" fill="blue" cx="12" cy="9" r="8" />
  <path stroke-width="1" stroke="white" fill="none" d="m 12,9 l 3,-4 z h 6 z l 3,4 z l -1,5 z l -5,4 z l -4,-2 z l -1,-6 z" />
  <circle stroke-width="1" stroke="white" fill="white" cx="15" cy="5" r="0.5" />
  <circle stroke-width="1" stroke="white" fill="white" cx="18" cy="9" r="1" />
  <circle stroke-width="1" stroke="white" fill="white" cx="15" cy="13" r="1" />
  <circle stroke-width="1" stroke="white" fill="white" cx="11" cy="14" r="0.5" />
  <circle stroke-width="1" stroke="white" fill="white" cx="7" cy="13" r="1" />
  <circle stroke-width="1" stroke="white" fill="white" cx="8" cy="7" r="0.5" />
  <circle stroke-width="1" stroke="white" fill="white" cx="11" cy="3" r="1" />
  <circle stroke-width="1" stroke="white" fill="white" cx="12" cy="9" r="2" />
  <path stroke-width="1" stroke="maroon" fill="orange" d="m 12,23 l -11,-5 v -6 l 11,5 v 6 -6 l 11,-5 v 6 z" />
</svg>
